<svg width="61" height="17" viewBox="0 0 61 17" fill="none" xmlns="http://www.w3.org/2000/svg">
<path d="M12.7164 8.19729C12.7185 8.99654 12.5318 9.78499 12.1714 10.4984C11.7441 11.3533 11.0873 12.0723 10.2745 12.575C9.46164 13.0777 8.5249 13.3441 7.56918 13.3445C6.76993 13.3466 5.98149 13.1599 5.26807 12.7995L1.81641 13.9501L2.96696 10.4984C2.60661 9.78499 2.41988 8.99654 2.42196 8.19729C2.42233 7.24158 2.68878 6.30484 3.19145 5.492C3.69413 4.67916 4.41318 4.02233 5.26807 3.59507C5.98149 3.23472 6.76993 3.04798 7.56918 3.05007H7.87196C9.13415 3.1197 10.3263 3.65245 11.2202 4.54631C12.114 5.44017 12.6468 6.63232 12.7164 7.89451V8.19729Z" stroke="white" stroke-width="1.21111" stroke-linecap="round" stroke-linejoin="round"/>
<path d="M19.8812 12V4.95354H22.7025C23.2209 4.95354 23.6533 5.03038 23.9996 5.18406C24.346 5.33774 24.6063 5.55106 24.7807 5.82402C24.955 6.09469 25.0421 6.40664 25.0421 6.75988C25.0421 7.03513 24.9871 7.27713 24.877 7.48586C24.7669 7.6923 24.6155 7.86204 24.4228 7.99508C24.2324 8.12582 24.0145 8.21872 23.7691 8.27377V8.34258C24.0375 8.35405 24.2886 8.42975 24.5226 8.56967C24.7589 8.70959 24.9504 8.9057 25.0972 9.15802C25.244 9.40804 25.3174 9.70623 25.3174 10.0526C25.3174 10.4265 25.2245 10.7602 25.0387 11.0538C24.8552 11.3451 24.5834 11.5757 24.2233 11.7454C23.8632 11.9151 23.4193 12 22.8917 12H19.8812ZM21.371 10.782H22.5855C23.0007 10.782 23.3035 10.7029 23.4939 10.5446C23.6842 10.384 23.7794 10.1707 23.7794 9.90464C23.7794 9.70967 23.7324 9.53764 23.6384 9.38854C23.5443 9.23945 23.4101 9.12246 23.2358 9.03759C23.0638 8.95273 22.8585 8.91029 22.6199 8.91029H21.371V10.782ZM21.371 7.90218H22.4754C22.6796 7.90218 22.8608 7.86662 23.019 7.79552C23.1796 7.72212 23.3058 7.6189 23.3975 7.48586C23.4916 7.35282 23.5386 7.1934 23.5386 7.00761C23.5386 6.753 23.448 6.54771 23.2668 6.39173C23.0879 6.23575 22.8332 6.15776 22.5029 6.15776H21.371V7.90218ZM28.6471 12.1032C28.1126 12.1032 27.6505 11.9897 27.2605 11.7626C26.8729 11.5332 26.5735 11.2144 26.3625 10.8061C26.1515 10.3955 26.046 9.91955 26.046 9.37822C26.046 8.8323 26.1515 8.3552 26.3625 7.94691C26.5735 7.53632 26.8729 7.21749 27.2605 6.9904C27.6505 6.76103 28.1126 6.64634 28.6471 6.64634C29.1815 6.64634 29.6426 6.76103 30.0302 6.9904C30.4202 7.21749 30.7207 7.53632 30.9317 7.94691C31.1427 8.3552 31.2482 8.8323 31.2482 9.37822C31.2482 9.91955 31.1427 10.3955 30.9317 10.8061C30.7207 11.2144 30.4202 11.5332 30.0302 11.7626C29.6426 11.9897 29.1815 12.1032 28.6471 12.1032ZM28.654 10.9678C28.8971 10.9678 29.1001 10.899 29.263 10.7614C29.4258 10.6214 29.5485 10.4311 29.6311 10.1902C29.716 9.94937 29.7584 9.67526 29.7584 9.3679C29.7584 9.06053 29.716 8.78643 29.6311 8.54558C29.5485 8.30473 29.4258 8.11435 29.263 7.97443C29.1001 7.83451 28.8971 7.76455 28.654 7.76455C28.4085 7.76455 28.2021 7.83451 28.0347 7.97443C27.8695 8.11435 27.7445 8.30473 27.6596 8.54558C27.5771 8.78643 27.5358 9.06053 27.5358 9.3679C27.5358 9.67526 27.5771 9.94937 27.6596 10.1902C27.7445 10.4311 27.8695 10.6214 28.0347 10.7614C28.2021 10.899 28.4085 10.9678 28.654 10.9678ZM34.5891 12.1032C34.0547 12.1032 33.5925 11.9897 33.2025 11.7626C32.8149 11.5332 32.5155 11.2144 32.3045 10.8061C32.0935 10.3955 31.988 9.91955 31.988 9.37822C31.988 8.8323 32.0935 8.3552 32.3045 7.94691C32.5155 7.53632 32.8149 7.21749 33.2025 6.9904C33.5925 6.76103 34.0547 6.64634 34.5891 6.64634C35.1236 6.64634 35.5846 6.76103 35.9723 6.9904C36.3622 7.21749 36.6627 7.53632 36.8737 7.94691C37.0847 8.3552 37.1902 8.8323 37.1902 9.37822C37.1902 9.91955 37.0847 10.3955 36.8737 10.8061C36.6627 11.2144 36.3622 11.5332 35.9723 11.7626C35.5846 11.9897 35.1236 12.1032 34.5891 12.1032ZM34.596 10.9678C34.8391 10.9678 35.0421 10.899 35.205 10.7614C35.3678 10.6214 35.4906 10.4311 35.5731 10.1902C35.658 9.94937 35.7004 9.67526 35.7004 9.3679C35.7004 9.06053 35.658 8.78643 35.5731 8.54558C35.4906 8.30473 35.3678 8.11435 35.205 7.97443C35.0421 7.83451 34.8391 7.76455 34.596 7.76455C34.3506 7.76455 34.1441 7.83451 33.9767 7.97443C33.8115 8.11435 33.6865 8.30473 33.6016 8.54558C33.5191 8.78643 33.4778 9.06053 33.4778 9.3679C33.4778 9.67526 33.5191 9.94937 33.6016 10.1902C33.6865 10.4311 33.8115 10.6214 33.9767 10.7614C34.1441 10.899 34.3506 10.9678 34.596 10.9678ZM44.3881 7.42049H42.8811C42.8536 7.22552 42.7974 7.05234 42.7125 6.90095C42.6276 6.74726 42.5187 6.61652 42.3856 6.50871C42.2526 6.4009 42.0989 6.31833 41.9246 6.26098C41.7526 6.20364 41.5656 6.17497 41.3638 6.17497C40.9991 6.17497 40.6814 6.26557 40.4107 6.44678C40.14 6.62569 39.9302 6.88718 39.7811 7.23125C39.632 7.57302 39.5574 7.98819 39.5574 8.47677C39.5574 8.9791 39.632 9.40116 39.7811 9.74293C39.9325 10.0847 40.1435 10.3428 40.4141 10.5171C40.6848 10.6914 40.9979 10.7786 41.3534 10.7786C41.553 10.7786 41.7376 10.7522 41.9074 10.6994C42.0794 10.6467 42.232 10.5698 42.365 10.4689C42.498 10.3657 42.6081 10.2407 42.6953 10.0939C42.7848 9.94707 42.8467 9.77963 42.8811 9.59154L44.3881 9.59842C44.3491 9.92184 44.2516 10.2338 44.0956 10.5343C43.942 10.8325 43.7344 11.0997 43.4729 11.336C43.2137 11.5699 42.904 11.7557 42.5439 11.8933C42.1861 12.0287 41.7812 12.0963 41.3294 12.0963C40.7009 12.0963 40.1389 11.9541 39.6434 11.6697C39.1503 11.3853 38.7603 10.9735 38.4736 10.4345C38.1892 9.89547 38.047 9.24289 38.047 8.47677C38.047 7.70835 38.1915 7.05463 38.4805 6.51559C38.7695 5.97656 39.1617 5.56597 39.6572 5.28384C40.1527 4.99941 40.71 4.8572 41.3294 4.8572C41.7376 4.8572 42.1161 4.91454 42.4648 5.02923C42.8157 5.14392 43.1265 5.31136 43.3972 5.53157C43.6679 5.74947 43.8881 6.0167 44.0578 6.33324C44.2298 6.64978 44.3399 7.01219 44.3881 7.42049ZM46.8946 8.9447V12H45.4289V4.95354H46.8533V7.64757H46.9153C47.0345 7.33562 47.2272 7.09133 47.4933 6.91471C47.7594 6.7358 48.0931 6.64634 48.4945 6.64634C48.8615 6.64634 49.1815 6.72662 49.4545 6.88718C49.7297 7.04545 49.943 7.27368 50.0944 7.57188C50.2481 7.86777 50.3238 8.22216 50.3215 8.63504V12H48.8558V8.89653C48.8581 8.57081 48.7755 8.31735 48.6081 8.13614C48.4429 7.95493 48.2112 7.86433 47.9131 7.86433C47.7135 7.86433 47.5369 7.90677 47.3832 7.99164C47.2318 8.0765 47.1125 8.20037 47.0254 8.36323C46.9405 8.52379 46.8969 8.71761 46.8946 8.9447ZM52.982 12.0998C52.6448 12.0998 52.3443 12.0413 52.0806 11.9243C51.8168 11.805 51.608 11.6296 51.4544 11.3979C51.303 11.1639 51.2273 10.8726 51.2273 10.524C51.2273 10.2304 51.2812 9.98378 51.389 9.78422C51.4968 9.58466 51.6436 9.4241 51.8294 9.30253C52.0152 9.18096 52.2262 9.0892 52.4625 9.02727C52.701 8.96534 52.951 8.92176 53.2125 8.89653C53.5199 8.86442 53.7676 8.8346 53.9557 8.80707C54.1438 8.77725 54.2803 8.73367 54.3651 8.67633C54.45 8.61898 54.4925 8.53411 54.4925 8.42172V8.40107C54.4925 8.18317 54.4236 8.01457 54.286 7.8953C54.1507 7.77602 53.958 7.71638 53.708 7.71638C53.4442 7.71638 53.2343 7.77487 53.0783 7.89186C52.9224 8.00654 52.8191 8.15105 52.7687 8.32538L51.4131 8.21528C51.4819 7.89415 51.6172 7.6166 51.8191 7.38264C52.0209 7.14638 52.2813 6.96517 52.6001 6.83901C52.9212 6.71056 53.2928 6.64634 53.7149 6.64634C54.0085 6.64634 54.2895 6.68075 54.5578 6.74956C54.8285 6.81837 55.0682 6.92503 55.2769 7.06954C55.4879 7.21405 55.6542 7.39984 55.7758 7.62693C55.8974 7.85172 55.9582 8.12123 55.9582 8.43548V12H54.5681V11.2671H54.5269C54.442 11.4323 54.3284 11.5779 54.1862 11.7041C54.044 11.828 53.8731 11.9255 53.6736 11.9966C53.474 12.0654 53.2435 12.0998 52.982 12.0998ZM53.4018 11.0882C53.6174 11.0882 53.8078 11.0458 53.9729 10.9609C54.1381 10.8738 54.2677 10.7568 54.3617 10.61C54.4558 10.4632 54.5028 10.2969 54.5028 10.1111V9.55025C54.4569 9.58007 54.3938 9.6076 54.3135 9.63283C54.2355 9.65577 54.1472 9.67756 54.0486 9.6982C53.95 9.71655 53.8513 9.73375 53.7527 9.74981C53.6541 9.76357 53.5646 9.77619 53.4843 9.78766C53.3123 9.81289 53.1621 9.85303 53.0336 9.90808C52.9052 9.96313 52.8054 10.0377 52.7343 10.1317C52.6632 10.2235 52.6276 10.3382 52.6276 10.4758C52.6276 10.6753 52.6999 10.8279 52.8444 10.9334C52.9912 11.0366 53.177 11.0882 53.4018 11.0882ZM59.9063 6.71515V7.81616H56.7237V6.71515H59.9063ZM57.4462 5.44899H58.912V10.376C58.912 10.5113 58.9326 10.6169 58.9739 10.6926C59.0152 10.766 59.0725 10.8176 59.1459 10.8474C59.2216 10.8772 59.3088 10.8921 59.4074 10.8921C59.4762 10.8921 59.5451 10.8864 59.6139 10.8749C59.6827 10.8611 59.7354 10.8508 59.7721 10.8439L60.0027 11.9346C59.9293 11.9576 59.826 11.9839 59.693 12.0138C59.56 12.0459 59.3982 12.0654 59.2079 12.0723C58.8546 12.086 58.545 12.039 58.2789 11.9312C58.0151 11.8234 57.8098 11.6559 57.663 11.4289C57.5162 11.2018 57.444 10.915 57.4462 10.5687V5.44899Z" fill="white"/>
</svg>
