<svg width="88" height="28" viewBox="0 0 88 28" fill="none" xmlns="http://www.w3.org/2000/svg">
<path d="M21 13.5C21.0034 14.8199 20.6951 16.1219 20.1 17.3C19.3944 18.7118 18.3098 19.8992 16.9674 20.7293C15.6251 21.5594 14.0782 21.9994 12.5 22C11.1801 22.0035 9.87812 21.6951 8.7 21.1L3 23L4.9 17.3C4.30493 16.1219 3.99656 14.8199 4 13.5C4.00061 11.9218 4.44061 10.3749 5.27072 9.03258C6.10083 7.69028 7.28825 6.6056 8.7 5.90003C9.87812 5.30496 11.1801 4.99659 12.5 5.00003H13C15.0843 5.11502 17.053 5.99479 18.5291 7.47089C20.0052 8.94699 20.885 10.9157 21 13V13.5Z" stroke="white" stroke-width="2" stroke-linecap="round" stroke-linejoin="round"/>
<path d="M32.2536 8.36364H35.2876L38.4922 16.1818H38.6286L41.8331 8.36364H44.8672V20H42.4808V12.4261H42.3842L39.3729 19.9432H37.7479L34.7365 12.3977H34.6399V20H32.2536V8.36364ZM46.8487 20V11.2727H49.2692V20H46.8487ZM48.0646 10.1477C47.7048 10.1477 47.3961 10.0284 47.1385 9.78977C46.8847 9.54735 46.7578 9.25758 46.7578 8.92045C46.7578 8.58712 46.8847 8.30114 47.1385 8.0625C47.3961 7.82008 47.7048 7.69886 48.0646 7.69886C48.4245 7.69886 48.7313 7.82008 48.9851 8.0625C49.2427 8.30114 49.3714 8.58712 49.3714 8.92045C49.3714 9.25758 49.2427 9.54735 48.9851 9.78977C48.7313 10.0284 48.4245 10.1477 48.0646 10.1477ZM61.5206 12.4375H59.032C58.9865 12.1155 58.8937 11.8295 58.7536 11.5795C58.6134 11.3258 58.4335 11.1098 58.2138 10.9318C57.9941 10.7538 57.7403 10.6174 57.4524 10.5227C57.1683 10.428 56.8596 10.3807 56.5263 10.3807C55.924 10.3807 55.3994 10.5303 54.9524 10.8295C54.5054 11.125 54.1589 11.5568 53.9126 12.125C53.6664 12.6894 53.5433 13.375 53.5433 14.1818C53.5433 15.0114 53.6664 15.7083 53.9126 16.2727C54.1626 16.8371 54.5111 17.2633 54.9581 17.5511C55.4051 17.839 55.9221 17.983 56.5092 17.983C56.8388 17.983 57.1437 17.9394 57.424 17.8523C57.7081 17.7652 57.96 17.6383 58.1797 17.4716C58.3994 17.3011 58.5812 17.0947 58.7251 16.8523C58.8729 16.6098 58.9751 16.3333 59.032 16.0227L61.5206 16.0341C61.4562 16.5682 61.2952 17.0833 61.0376 17.5795C60.7839 18.072 60.4411 18.5133 60.0092 18.9034C59.5812 19.2898 59.0698 19.5966 58.4751 19.8239C57.8842 20.0473 57.2157 20.1591 56.4695 20.1591C55.4316 20.1591 54.5036 19.9242 53.6854 19.4545C52.871 18.9848 52.227 18.3049 51.7536 17.4148C51.2839 16.5246 51.049 15.447 51.049 14.1818C51.049 12.9129 51.2876 11.8333 51.7649 10.9432C52.2422 10.053 52.8899 9.375 53.7081 8.90909C54.5263 8.43939 55.4467 8.20455 56.4695 8.20455C57.1437 8.20455 57.7687 8.29924 58.3445 8.48864C58.924 8.67803 59.4373 8.95455 59.8842 9.31818C60.3312 9.67803 60.6948 10.1193 60.9751 10.642C61.2592 11.1648 61.4411 11.7633 61.5206 12.4375ZM65.6598 14.9545V20H63.2393V8.36364H65.5916V12.8125H65.6939C65.8909 12.2973 66.209 11.8939 66.6484 11.6023C67.0878 11.3068 67.639 11.1591 68.3018 11.1591C68.9079 11.1591 69.4363 11.2917 69.8871 11.5568C70.3416 11.8182 70.6939 12.1951 70.9439 12.6875C71.1977 13.1761 71.3227 13.7614 71.3189 14.4432V20H68.8984V14.875C68.9022 14.3371 68.7659 13.9186 68.4893 13.6193C68.2166 13.3201 67.834 13.1705 67.3416 13.1705C67.0121 13.1705 66.7204 13.2405 66.4666 13.3807C66.2166 13.5208 66.0196 13.7254 65.8757 13.9943C65.7356 14.2595 65.6636 14.5795 65.6598 14.9545ZM75.7124 20.1648C75.1555 20.1648 74.6593 20.0682 74.2237 19.875C73.7881 19.678 73.4434 19.3883 73.1896 19.0057C72.9396 18.6193 72.8146 18.1383 72.8146 17.5625C72.8146 17.0777 72.9036 16.6705 73.0817 16.3409C73.2597 16.0114 73.5021 15.7462 73.8089 15.5455C74.1158 15.3447 74.4643 15.1932 74.8544 15.0909C75.2483 14.9886 75.6612 14.9167 76.093 14.875C76.6006 14.822 77.0097 14.7727 77.3203 14.7273C77.6309 14.678 77.8563 14.6061 77.9964 14.5114C78.1366 14.4167 78.2067 14.2765 78.2067 14.0909V14.0568C78.2067 13.697 78.093 13.4186 77.8658 13.2216C77.6423 13.0246 77.3241 12.9261 76.9112 12.9261C76.4756 12.9261 76.129 13.0227 75.8714 13.2159C75.6139 13.4053 75.4434 13.6439 75.3601 13.9318L73.1214 13.75C73.2351 13.2197 73.4586 12.7614 73.7919 12.375C74.1252 11.9848 74.5552 11.6856 75.0817 11.4773C75.612 11.2652 76.2256 11.1591 76.9226 11.1591C77.4074 11.1591 77.8714 11.2159 78.3146 11.3295C78.7616 11.4432 79.1574 11.6193 79.5021 11.858C79.8506 12.0966 80.1252 12.4034 80.326 12.7784C80.5268 13.1496 80.6271 13.5947 80.6271 14.1136V20H78.3317V18.7898H78.2635C78.1233 19.0625 77.9358 19.303 77.701 19.5114C77.4661 19.7159 77.1839 19.8769 76.8544 19.9943C76.5249 20.108 76.1442 20.1648 75.7124 20.1648ZM76.4055 18.4943C76.7616 18.4943 77.076 18.4242 77.3487 18.2841C77.6214 18.1402 77.8355 17.947 77.9908 17.7045C78.1461 17.4621 78.2237 17.1875 78.2237 16.8807V15.9545C78.148 16.0038 78.0438 16.0492 77.9112 16.0909C77.7824 16.1288 77.6366 16.1648 77.4737 16.1989C77.3108 16.2292 77.148 16.2576 76.9851 16.2841C76.8222 16.3068 76.6745 16.3277 76.5419 16.3466C76.2578 16.3883 76.0097 16.4545 75.7976 16.5455C75.5855 16.6364 75.4207 16.7595 75.3033 16.9148C75.1858 17.0663 75.1271 17.2557 75.1271 17.483C75.1271 17.8125 75.2464 18.0644 75.4851 18.2386C75.7275 18.4091 76.0343 18.4943 76.4055 18.4943ZM87.147 11.2727V13.0909H81.8913V11.2727H87.147ZM83.0845 9.18182H85.505V17.3182C85.505 17.5417 85.5391 17.7159 85.6072 17.8409C85.6754 17.9621 85.7701 18.0473 85.8913 18.0966C86.0163 18.1458 86.1603 18.1705 86.3232 18.1705C86.4368 18.1705 86.5504 18.161 86.6641 18.142C86.7777 18.1193 86.8648 18.1023 86.9254 18.0909L87.3061 19.892C87.1849 19.9299 87.0144 19.9735 86.7947 20.0227C86.575 20.0758 86.308 20.108 85.9936 20.1193C85.4103 20.142 84.8989 20.0644 84.4595 19.8864C84.0239 19.7083 83.6849 19.4318 83.4425 19.0568C83.2 18.6818 83.0807 18.2083 83.0845 17.6364V9.18182Z" fill="white"/>
</svg>
