<svg width="256" height="256" viewBox="0 0 256 256" fill="none" xmlns="http://www.w3.org/2000/svg">
<g clip-path="url(#clip0_332_18)">
<rect width="256" height="256" rx="64" fill="white"/>
<rect width="256" height="256" fill="black"/>
<path d="M210 123.445C210.031 135.47 207.221 147.333 201.8 158.067C195.371 170.929 185.489 181.748 173.259 189.311C161.029 196.874 146.935 200.883 132.555 200.889C120.53 200.92 108.667 198.111 97.9332 192.689L46 210L63.3111 158.067C57.8894 147.333 55.0797 135.47 55.1111 123.445C55.1167 109.065 59.1256 94.971 66.6887 82.7412C74.2519 70.5114 85.0707 60.6287 97.9332 54.2002C108.667 48.7785 120.53 45.9689 132.555 46.0003H137.111C156.102 47.048 174.039 55.0636 187.487 68.5125C200.936 81.9614 208.952 99.8983 210 118.889V123.445Z" stroke="white" stroke-width="29" stroke-linecap="round" stroke-linejoin="round"/>
</g>
<defs>
<clipPath id="clip0_332_18">
<rect width="256" height="256" rx="64" fill="white"/>
</clipPath>
</defs>
</svg>
